<?xml version="1.0" encoding="utf-8"?>
<!-- Generator: Adobe Illustrator 22.1.0, SVG Export Plug-In . SVG Version: 6.00 Build 0)  -->
<svg version="1.1" id="Layer_1" xmlns="http://www.w3.org/2000/svg" xmlns:xlink="http://www.w3.org/1999/xlink" x="0px" y="0px"
	 viewBox="0 0 696.3 312.2" style="enable-background:new 0 0 696.3 312.2;" xml:space="preserve">
<style type="text/css">
	.st0{fill:#58595B;}
	.st1{font-family:'Questrial-Regular';}
	.st2{font-size:65.9025px;}
	.st3{fill:#BD1B21;}
	.st4{fill:#D71D28;}
	.st5{fill:#EE303C;}
	.st6{clip-path:url(#SVGID_2_);}
	.st7{fill:#FFFFFF;}
	.st8{clip-path:url(#SVGID_4_);}
	.st9{font-family:'Gotham-Light';}
	.st10{font-size:16.121px;}
	.st11{font-family:'Gotham-Medium';}
</style>
<g>
	<text transform="matrix(1 0 0 1 296.8887 171.9075)" class="st0 st1 st2">equibit</text>
	<polygon class="st3" points="239.6,156.1 198.5,132.4 198.5,179.8 239.6,203.5 239.6,156.1 	"/>
	<polygon class="st4" points="239.6,156.1 280.7,132.4 239.6,108.7 198.5,132.4 	"/>
	<polygon class="st5" points="239.6,203.5 280.7,179.8 280.7,132.4 239.6,156.1 	"/>
	<path class="st5" d="M232.7,152.1"/>
	<g>
		<g>
			<defs>
				<path id="SVGID_1_" d="M239.6,187.7l27.4-15.8v-15.8l-27.4,15.8 M225.9,156.1"/>
			</defs>
			<use xlink:href="#SVGID_1_"  style="overflow:visible;fill:#FFFFFF;"/>
			<clipPath id="SVGID_2_">
				<use xlink:href="#SVGID_1_"  style="overflow:visible;"/>
			</clipPath>
			<g class="st6">
				<path class="st7" d="M198.5,179.8"/>
				<line class="st7" x1="239.6" y1="156.1" x2="239.6" y2="203.5"/>
				<line class="st7" x1="198.5" y1="179.8" x2="198.5" y2="132.4"/>
				<path class="st7" d="M239.6,156.1"/>
			</g>
		</g>
		<polygon class="st7" points="239.6,156.1 232.8,152.1 225.9,156.1 225.9,148.2 212.2,140.3 212.2,171.9 239.6,187.7 239.6,171.9 
			232.7,168 239.6,164 		"/>
		<g>
			<line class="st7" x1="225.9" y1="148.2" x2="225.9" y2="148.2"/>
			<polygon class="st7" points="267,140.3 239.6,124.5 212.2,140.3 225.9,148.2 239.6,140.3 246.4,144.3 232.8,152.1 239.6,156.1 
							"/>
		</g>
		<g>
			<defs>
				<path id="SVGID_3_" d="M239.6,156.1l0,7.9l27.4-15.8l0-7.9L239.6,156.1z"/>
			</defs>
			<use xlink:href="#SVGID_3_"  style="overflow:visible;fill:#FFFFFF;"/>
			<clipPath id="SVGID_4_">
				<use xlink:href="#SVGID_3_"  style="overflow:visible;"/>
			</clipPath>
			<g class="st8">
				<polygon class="st7" points="239.6,156.1 239.6,203.5 198.5,179.8 				"/>
				<polygon class="st7" points="198.5,179.8 198.5,132.4 239.6,156.1 				"/>
			</g>
		</g>
	</g>
</g>
<text transform="matrix(1 0 0 1 299.494 203.5166)"><tspan x="0" y="0" class="st0 st9 st10">the</tspan><tspan x="25.7" y="0" class="st5 st11 st10"> blockchain </tspan><tspan x="123.3" y="0" class="st0 st9 st10">of capital</tspan></text>
</svg>
